<svg id="visual" viewBox="0 0 900 600" width="900" height="600" xmlns="http://www.w3.org/2000/svg" xmlns:xlink="http://www.w3.org/1999/xlink" version="1.1"><rect x="0" y="0" width="900" height="600" fill="#001220"></rect><defs><linearGradient id="grad1_0" x1="33.3%" y1="0%" x2="100%" y2="100%"><stop offset="20%" stop-color="#fbae3c" stop-opacity="1"></stop><stop offset="80%" stop-color="#fbae3c" stop-opacity="1"></stop></linearGradient></defs><defs><linearGradient id="grad1_1" x1="33.3%" y1="0%" x2="100%" y2="100%"><stop offset="20%" stop-color="#fbae3c" stop-opacity="1"></stop><stop offset="80%" stop-color="#001220" stop-opacity="1"></stop></linearGradient></defs><defs><linearGradient id="grad2_0" x1="0%" y1="0%" x2="66.7%" y2="100%"><stop offset="20%" stop-color="#fbae3c" stop-opacity="1"></stop><stop offset="80%" stop-color="#fbae3c" stop-opacity="1"></stop></linearGradient></defs><defs><linearGradient id="grad2_1" x1="0%" y1="0%" x2="66.7%" y2="100%"><stop offset="20%" stop-color="#001220" stop-opacity="1"></stop><stop offset="80%" stop-color="#fbae3c" stop-opacity="1"></stop></linearGradient></defs><g transform="translate(900, 0)"><path d="M0 405.6C-51.6 400.1 -103.1 394.5 -155.2 374.7C-207.3 355 -260 320.9 -272.2 272.2C-284.4 223.6 -256.1 160.3 -271.6 112.5C-287.1 64.7 -346.4 32.4 -405.6 0L0 0Z" fill="#96446e"></path><path d="M0 202.8C-25.8 200 -51.6 197.3 -77.6 187.4C-103.7 177.5 -130 160.4 -136.1 136.1C-142.2 111.8 -128.1 80.2 -135.8 56.3C-143.6 32.4 -173.2 16.2 -202.8 0L0 0Z" fill="#fbae3c"></path></g><g transform="translate(0, 600)"><path d="M0 -405.6C65.5 -414.3 131.1 -422.9 155.2 -374.7C179.4 -326.6 162.2 -221.5 171.8 -171.8C181.5 -122.1 218 -127.7 261.5 -108.3C304.9 -88.9 355.3 -44.4 405.6 0L0 0Z" fill="#96446e"></path><path d="M0 -202.8C32.8 -207.1 65.5 -211.5 77.6 -187.4C89.7 -163.3 81.1 -110.8 85.9 -85.9C90.7 -61.1 109 -63.9 130.7 -54.1C152.5 -44.4 177.6 -22.2 202.8 0L0 0Z" fill="#fbae3c"></path></g></svg>